<svg data-v-2cb57da0="" version="1.0" xmlns="http://www.w3.org/2000/svg" xmlns:xlink="http://www.w3.org/1999/xlink" width="100%" height="100%" viewBox="0 0 340.000000 250.000000" preserveAspectRatio="xMidYMid meet" color-interpolation-filters="sRGB" style="margin: auto;"><rect data-v-2cb57da0="" x="0" y="0" width="100%" height="100%" fill="#ffffff" fill-opacity="1" class="background"></rect>  <g data-v-2cb57da0="" class="iconmbgsvg" transform="translate(90.58000183105469,67.85714340209961)"><g fill="#293462" hollow-target="textRect"><g transform="translate(16.919998168945312,0)" mask="url(#1b298f95-0bfd-4144-bdd5-93190586a8ac)"><g><rect fill="#293462" fill-opacity="0" stroke-width="2" x="0" y="0" width="125" height="114.28571428571429" class="image-rect"></rect> <svg filter="url(#colors5055564549)" x="0" y="0" width="125" height="114.28571428571429" filtersec="colorsf9617148508" class="image-svg-svg primary" style="overflow: visible;"><svg fill="#fe5f55" xmlns="http://www.w3.org/2000/svg" xmlns:xlink="http://www.w3.org/1999/xlink" version="1.1" x="0px" y="0px" viewBox="11.90000057220459 13.199999809265137 80.5 73.5999984741211" style="enable-background:new 0 0 100 100;" xml:space="preserve"><g><rect x="11.9" y="39.5" width="8" height="20.9"></rect></g><g><rect x="30" y="25.6" width="8" height="48.9"></rect></g><g><rect x="48.1" y="13.2" width="8" height="73.6"></rect></g><g><rect x="84.4" y="39.5" width="8" height="20.9"></rect></g><g><rect x="66.3" y="25.6" width="8" height="48.9"></rect></g></svg></svg> <defs><filter id="colors5055564549"><feColorMatrix type="matrix" values="0 0 0 0 0.9921875  0 0 0 0 0.37109375  0 0 0 0 0.33203125  0 0 0 1 0" class="icon-fecolormatrix"></feColorMatrix></filter> <filter id="colorsf9617148508"><feColorMatrix type="matrix" values="0 0 0 0 0.99609375  0 0 0 0 0.99609375  0 0 0 0 0.99609375  0 0 0 1 0" class="icon-fecolormatrix"></feColorMatrix></filter> <filter id="colorsb9370420690"><feColorMatrix type="matrix" values="0 0 0 0 0  0 0 0 0 0  0 0 0 0 0  0 0 0 1 0" class="icon-fecolormatrix"></feColorMatrix></filter></defs></g></g> <g transform="translate(0,40.14285659790039)"><g data-gra="path-name" fill-rule="" class="tp-name"><g transform="scale(1)"><g><path d="M2.6 7.32L2.6-19.48 11.96-19.48Q14.68-19.48 16.08-19.14 17.48-18.8 18.76-17.8L18.76-17.8Q22.24-15.08 22.24-9.44L22.24-9.44Q22.24-5.16 19.68-2.52L19.68-2.52Q18.4-1.2 16.74-0.6 15.08 0 12.68 0L12.68 0 7.96 0 7.96 7.32 2.6 7.32ZM11.6-15.32L7.96-15.32 7.96-4.16 11.24-4.16Q13.84-4.16 15.04-5.28L15.04-5.28Q16.72-6.76 16.72-9.84L16.72-9.84Q16.72-12.48 15.4-13.9 14.08-15.32 11.6-15.32L11.6-15.32ZM26.16 0L26.16-19.48 34.08-19.48Q36.52-19.48 37.86-19.14 39.2-18.8 40.08-18L40.08-18Q40.96-17.2 41.32-16 41.68-14.8 41.68-12.56L41.68-12.56 41.68-10.68 36.52-10.68 36.52-11.72Q36.52-13.8 35.8-14.56 35.08-15.32 33.04-15.32L33.04-15.32 31.52-15.32 31.52 0 26.16 0ZM53.88-19.76L53.88-19.76Q59.28-19.76 61.84-16.64L61.84-16.64Q64.2-13.8 64.2-9.48L64.2-9.48Q64.2-4.92 61.24-2.2L61.24-2.2Q58.52 0.28 53.8 0.28L53.8 0.28Q48.92 0.28 46.16-2.52L46.16-2.52Q43.6-5.04 43.6-9.88L43.6-9.88Q43.6-13.96 46.04-16.68L46.04-16.68Q48.76-19.72 53.88-19.76ZM53.92-15.68L53.92-15.68Q49.08-15.68 49.08-9.68L49.08-9.68Q49.08-7.24 49.88-5.96L49.88-5.96Q51.2-3.8 53.96-3.8L53.96-3.8Q58.72-3.8 58.72-9.76L58.72-9.76Q58.72-15.6 53.92-15.68ZM65.68 0L73-9.64 65.96-19.48 71.96-19.48 76.08-13.72 80.04-19.48 86.36-19.48 79.08-9.64 86.36 0 80.04 0 76.08-5.56 71.96 0 65.68 0ZM89.16 0L89.16-19.48 94.52-19.48 94.52 0 89.16 0ZM94.52-21.48L89.16-21.48 89.16-26.68 94.52-26.68 94.52-21.48ZM101.4 0L101.4-15.32 97.92-15.32 97.92-19.48 101.4-19.48 101.4-20.64Q101.4-23.8 102.74-25.24 104.08-26.68 107.08-26.68L107.08-26.68 111.76-26.68 111.76-22.52 109.04-22.52Q106.72-22.6 106.76-20.36L106.76-20.36 106.76-19.48 111.8-19.48 111.8-15.32 106.76-15.32 106.76 0 101.4 0ZM115 0L115-19.48 120.36-19.48 120.36 0 115 0ZM120.36-21.48L115-21.48 115-26.68 120.36-26.68 120.36-21.48ZM130.28-11.84L141.56-11.84 141.56-7.68 130.28-7.68Q130.44-5.76 131.52-4.96 132.6-4.16 135.04-4.16L135.04-4.16 141.56-4.16 141.56 0 134.44 0Q132.12 0 130.66-0.42 129.2-0.84 127.92-1.8L127.92-1.8Q124.36-4.56 124.36-10L124.36-10Q124.36-13.52 126.24-16.16L126.24-16.16Q127.52-17.96 129.32-18.72 131.12-19.48 134.04-19.48L134.04-19.48 141.56-19.48 141.56-15.32 134.44-15.32Q132.24-15.32 131.36-14.58 130.48-13.84 130.28-11.84L130.28-11.84ZM145.92 0L145.92-19.48 153.84-19.48Q156.28-19.48 157.62-19.14 158.96-18.8 159.84-18L159.84-18Q160.72-17.2 161.08-16 161.44-14.8 161.44-12.56L161.44-12.56 161.44-10.68 156.28-10.68 156.28-11.72Q156.28-13.8 155.56-14.56 154.84-15.32 152.8-15.32L152.8-15.32 151.28-15.32 151.28 0 145.92 0Z" transform="translate(-2.5999999046325684, 26.68000030517578)"></path></g> <!----> <!----> <!----> <!----> <!----> <!----> <!----></g></g> <!----></g></g></g><mask id="1b298f95-0bfd-4144-bdd5-93190586a8ac"><g fill="white"><g><rect fill-opacity="1" stroke-width="2" x="0" y="0" width="125" height="114.28571428571429" class="image-rect"></rect> <svg x="0" y="0" width="125" height="114.28571428571429" class="image-svg-svg primary" style="overflow: visible;" filter="url(#colorsf9617148508)"><svg xmlns="http://www.w3.org/2000/svg" xmlns:xlink="http://www.w3.org/1999/xlink" version="1.1" x="0px" y="0px" viewBox="11.90000057220459 13.199999809265137 80.5 73.5999984741211" style="enable-background:new 0 0 100 100;" xml:space="preserve"><g><rect x="11.9" y="39.5" width="8" height="20.9"></rect></g><g><rect x="30" y="25.6" width="8" height="48.9"></rect></g><g><rect x="48.1" y="13.2" width="8" height="73.6"></rect></g><g><rect x="84.4" y="39.5" width="8" height="20.9"></rect></g><g><rect x="66.3" y="25.6" width="8" height="48.9"></rect></g></svg></svg> <defs>  </defs></g></g> <g transform="translate(-16.919998168945312,40.14285659790039)"><rect fill="black" fill-opacity="1" x="-3.5" y="-3.5" width="165.83999633789062" height="41"></rect><rect fill="black" fill-opacity="1" x="-3.5" y="-3.5"></rect></g><g transform="translate(-16.919998168945312,40.14285659790039)" fill="black"><g data-gra="path-name" fill-rule="" class="tp-name"><g transform="scale(1)"><g><path d="M2.6 7.32L2.6-19.48 11.96-19.48Q14.68-19.48 16.08-19.14 17.48-18.8 18.76-17.8L18.76-17.8Q22.24-15.08 22.24-9.44L22.24-9.44Q22.24-5.16 19.68-2.52L19.68-2.52Q18.4-1.2 16.74-0.6 15.08 0 12.68 0L12.68 0 7.96 0 7.96 7.32 2.6 7.32ZM11.6-15.32L7.96-15.32 7.96-4.16 11.24-4.16Q13.84-4.16 15.04-5.28L15.04-5.28Q16.72-6.76 16.72-9.84L16.72-9.84Q16.72-12.48 15.4-13.9 14.08-15.32 11.6-15.32L11.6-15.32ZM26.16 0L26.16-19.48 34.08-19.48Q36.52-19.48 37.86-19.14 39.2-18.8 40.08-18L40.08-18Q40.96-17.2 41.32-16 41.68-14.8 41.68-12.56L41.68-12.56 41.68-10.68 36.52-10.68 36.52-11.72Q36.52-13.8 35.8-14.56 35.08-15.32 33.04-15.32L33.04-15.32 31.52-15.32 31.52 0 26.16 0ZM53.88-19.76L53.88-19.76Q59.28-19.76 61.84-16.64L61.84-16.64Q64.2-13.8 64.2-9.48L64.2-9.48Q64.2-4.92 61.24-2.2L61.24-2.2Q58.52 0.28 53.8 0.28L53.8 0.28Q48.92 0.28 46.16-2.52L46.16-2.52Q43.6-5.04 43.6-9.88L43.6-9.88Q43.6-13.96 46.04-16.68L46.04-16.68Q48.76-19.72 53.88-19.76ZM53.92-15.68L53.92-15.68Q49.08-15.68 49.08-9.68L49.08-9.68Q49.08-7.24 49.88-5.96L49.88-5.96Q51.2-3.8 53.96-3.8L53.96-3.8Q58.72-3.8 58.72-9.76L58.72-9.76Q58.72-15.6 53.92-15.68ZM65.68 0L73-9.64 65.96-19.48 71.96-19.48 76.08-13.72 80.04-19.48 86.36-19.48 79.08-9.64 86.36 0 80.04 0 76.08-5.56 71.96 0 65.68 0ZM89.16 0L89.16-19.48 94.52-19.48 94.52 0 89.16 0ZM94.52-21.48L89.16-21.48 89.16-26.68 94.52-26.68 94.52-21.48ZM101.4 0L101.4-15.32 97.92-15.32 97.92-19.48 101.4-19.48 101.4-20.64Q101.4-23.8 102.74-25.24 104.08-26.68 107.08-26.68L107.08-26.68 111.76-26.68 111.76-22.52 109.04-22.52Q106.72-22.6 106.76-20.36L106.76-20.36 106.76-19.48 111.8-19.48 111.8-15.32 106.76-15.32 106.76 0 101.4 0ZM115 0L115-19.48 120.36-19.48 120.36 0 115 0ZM120.36-21.48L115-21.48 115-26.68 120.36-26.68 120.36-21.48ZM130.28-11.84L141.56-11.84 141.56-7.68 130.28-7.68Q130.44-5.76 131.52-4.96 132.6-4.16 135.04-4.16L135.04-4.16 141.56-4.16 141.56 0 134.44 0Q132.12 0 130.66-0.42 129.2-0.84 127.92-1.8L127.92-1.8Q124.36-4.56 124.36-10L124.36-10Q124.36-13.52 126.24-16.16L126.24-16.16Q127.52-17.96 129.32-18.72 131.12-19.48 134.04-19.48L134.04-19.48 141.56-19.48 141.56-15.32 134.44-15.32Q132.24-15.32 131.36-14.58 130.48-13.84 130.28-11.84L130.28-11.84ZM145.92 0L145.92-19.48 153.84-19.48Q156.28-19.48 157.62-19.14 158.96-18.8 159.84-18L159.84-18Q160.72-17.2 161.08-16 161.44-14.8 161.44-12.56L161.44-12.56 161.44-10.68 156.28-10.68 156.28-11.72Q156.28-13.8 155.56-14.56 154.84-15.32 152.8-15.32L152.8-15.32 151.28-15.32 151.28 0 145.92 0Z" transform="translate(-2.5999999046325684, 26.68000030517578)"></path></g>       </g></g> </g></mask><defs v-gra="od"></defs></svg>